# xmcd
#
# Track frame offsets:
#	150
#	22342
#	38743
#	58213
#	78108
#	97331
#	113251
#	131760
#	150515
#	171062
#	187035
#	207413
#	224385
#	241896
#	267959
#	285158
#
# Disc length: 4020 seconds
#
# Revision: 1
# Processed by: cddbd v1.5.2PL0 Copyright (c) Steve Scherf et al.
# Submitted via: audiograbber 1.83.01
#
DISCID=e00fb210
DTITLE=Chartbuster - esp 486-03 5051-03
DYEAR=1900
DGENRE=
TTITLE0=Urban, Keith - Better Life
TTITLE1=Adkins, Trace - Songs About Me
TTITLE2=McGraw, Tim - Do  You Want Fries With That
TTITLE3=Big and Rich - Holy Water
TTITLE4=Paisley, Brad and Parton, Dolly - When I Get Where I'm Going
TTITLE5=Shelton, Blake - Goodbye Time
TTITLE6=Worley, Darryl - Awful Beautiful Life
TTITLE7=Brooks and Dunn - It's Getting Better All The time
TTITLE8=Bentley, Dierks - Come A Little Closer
TTITLE9=Lonestar - You're Like Coming Home
TTITLE10=Strait, George - You'll Be There
TTITLE11=Turner, Josh - Your Man
TTITLE12=McCoy, Neil - Billy's Got His Beer Goggles On
TTITLE13=Chesney, Kenny - Anything But Mine
TTITLE14=Keith, Toby - Honky Tonk U
TTITLE15=Vassar, Phil - I'll Take That As A Yes (Hot Tub Song)
EXTD=
EXTT0=
EXTT1=
EXTT2=
EXTT3=
EXTT4=
EXTT5=
EXTT6=
EXTT7=
EXTT8=
EXTT9=
EXTT10=
EXTT11=
EXTT12=
EXTT13=
EXTT14=
EXTT15=
PLAYORDER=
